<svg width="115" height="43" viewBox="0 0 115 43" fill="none" xmlns="http://www.w3.org/2000/svg">
<path d="M19.8281 28.5469L18.7031 26.6875V15.125H19.8281V28.5469ZM22.0781 32.2344L20.9531 30.3438V15.125H22.0781V32.2344ZM24.3281 35.9688L23.2031 34.0625V15.125H24.3281V35.9688ZM8.20312 27.5781L9.32812 29.4375V41H8.20312V27.5781ZM5.95312 23.8906L7.07812 25.7812V41H5.95312V23.8906ZM3.70312 20.1562L4.82812 22.0625V41H3.70312V20.1562ZM4.09375 15.125H5.40625L21.3125 41H20L4.09375 15.125ZM6.75 15.125H8.07812L23.9688 41H22.625L6.75 15.125ZM9.39062 15.125H10.7031L25.4531 39.1719V15.125H26.5781V41C26.5781 41 26.1354 41 25.25 41L9.39062 15.125ZM2.57812 16.9531V41H1.45312V15.125C1.45312 15.125 1.90104 15.125 2.79688 15.125L18.6562 41H17.3594L2.57812 16.9531ZM38.6562 23.6875C37.4479 24.8958 36.8438 26.3542 36.8438 28.0625C36.8438 29.7708 37.4479 31.2292 38.6562 32.4375C39.8646 33.6458 41.3229 34.25 43.0312 34.25C44.7396 34.25 46.1979 33.6458 47.4062 32.4375C48.6146 31.2292 49.2188 29.7708 49.2188 28.0625C49.2188 26.3542 48.6146 24.8958 47.4062 23.6875C46.1979 22.4792 44.7396 21.875 43.0312 21.875C41.3229 21.875 39.8646 22.4792 38.6562 23.6875ZM36.2969 30.9062C35.9115 30 35.7188 29.0521 35.7188 28.0625C35.7188 27.0729 35.9115 26.1302 36.2969 25.2344C36.6823 24.3281 37.2031 23.5469 37.8594 22.8906C38.5156 22.2344 39.2917 21.7135 40.1875 21.3281C41.0938 20.9427 42.0417 20.75 43.0312 20.75C44.0208 20.75 44.9635 20.9427 45.8594 21.3281C46.7656 21.7135 47.5469 22.2344 48.2031 22.8906C48.8594 23.5469 49.3802 24.3281 49.7656 25.2344C50.151 26.1302 50.3438 27.0729 50.3438 28.0625C50.3438 29.0521 50.151 30 49.7656 30.9062C49.3802 31.8021 48.8594 32.5781 48.2031 33.2344C47.5469 33.8906 46.7656 34.4115 45.8594 34.7969C44.9635 35.1823 44.0208 35.375 43.0312 35.375C42.0417 35.375 41.0938 35.1823 40.1875 34.7969C39.2917 34.4115 38.5156 33.8906 37.8594 33.2344C37.2031 32.5781 36.6823 31.8021 36.2969 30.9062ZM35.7188 23.8281C34.9688 25.1198 34.5938 26.5312 34.5938 28.0625C34.5938 29.5938 34.9688 31.0052 35.7188 32.2969C36.4792 33.5885 37.5052 34.6146 38.7969 35.375C40.0885 36.125 41.5 36.5 43.0312 36.5C44.5625 36.5 45.974 36.125 47.2656 35.375C48.5573 34.6146 49.5781 33.5885 50.3281 32.2969C51.0885 31.0052 51.4688 29.5938 51.4688 28.0625C51.4688 26.5312 51.0885 25.1198 50.3281 23.8281C49.5781 22.5365 48.5573 21.5156 47.2656 20.7656C45.974 20.0052 44.5625 19.625 43.0312 19.625C41.5 19.625 40.0885 20.0052 38.7969 20.7656C37.5052 21.5156 36.4792 22.5365 35.7188 23.8281ZM34.75 32.8594C33.8958 31.3906 33.4688 29.7917 33.4688 28.0625C33.4688 26.3333 33.8958 24.7344 34.75 23.2656C35.6042 21.7969 36.7656 20.6354 38.2344 19.7812C39.7031 18.9271 41.3021 18.5 43.0312 18.5C44.7604 18.5 46.3594 18.9271 47.8281 19.7812C49.2969 20.6354 50.4583 21.7969 51.3125 23.2656C52.1667 24.7344 52.5938 26.3333 52.5938 28.0625C52.5938 29.7917 52.1667 31.3906 51.3125 32.8594C50.4583 34.3281 49.2969 35.4896 47.8281 36.3438C46.3594 37.1979 44.7604 37.625 43.0312 37.625C41.3021 37.625 39.7031 37.1979 38.2344 36.3438C36.7656 35.4896 35.6042 34.3281 34.75 32.8594ZM33.1875 23.9062C32.625 25.2292 32.3438 26.6146 32.3438 28.0625C32.3438 29.5104 32.625 30.8958 33.1875 32.2188C33.75 33.5417 34.5052 34.6823 35.4531 35.6406C36.4115 36.5885 37.5521 37.3438 38.875 37.9062C40.1979 38.4688 41.5833 38.75 43.0312 38.75C44.4792 38.75 45.8646 38.4688 47.1875 37.9062C48.5104 37.3438 49.6458 36.5885 50.5938 35.6406C51.5521 34.6823 52.3125 33.5417 52.875 32.2188C53.4375 30.8958 53.7188 29.5104 53.7188 28.0625C53.7188 26.6146 53.4375 25.2292 52.875 23.9062C52.3125 22.5833 51.5521 21.4479 50.5938 20.5C49.6458 19.5417 48.5104 18.7812 47.1875 18.2188C45.8646 17.6562 44.4792 17.375 43.0312 17.375C41.5833 17.375 40.1979 17.6562 38.875 18.2188C37.5521 18.7812 36.4115 19.5417 35.4531 20.5C34.5052 21.4479 33.75 22.5833 33.1875 23.9062ZM32.7969 33.9844C31.7448 32.1719 31.2188 30.1979 31.2188 28.0625C31.2188 25.9271 31.7448 23.9531 32.7969 22.1406C33.8594 20.3281 35.2969 18.8958 37.1094 17.8438C38.9219 16.7812 40.8958 16.25 43.0312 16.25C45.1667 16.25 47.1406 16.7812 48.9531 17.8438C50.7656 18.8958 52.1979 20.3281 53.25 22.1406C54.3125 23.9531 54.8438 25.9271 54.8438 28.0625C54.8438 30.1979 54.3125 32.1719 53.25 33.9844C52.1979 35.7969 50.7656 37.2344 48.9531 38.2969C47.1406 39.349 45.1667 39.875 43.0312 39.875C40.8958 39.875 38.9219 39.349 37.1094 38.2969C35.2969 37.2344 33.8594 35.7969 32.7969 33.9844ZM31.1094 23.0469C30.4323 24.6406 30.0938 26.3125 30.0938 28.0625C30.0938 29.8125 30.4323 31.4896 31.1094 33.0938C31.7969 34.6875 32.7188 36.0625 33.875 37.2188C35.0312 38.375 36.4062 39.2969 38 39.9844C39.6042 40.6615 41.2812 41 43.0312 41C44.7812 41 46.4531 40.6615 48.0469 39.9844C49.651 39.2969 51.0312 38.375 52.1875 37.2188C53.3438 36.0625 54.2604 34.6875 54.9375 33.0938C55.625 31.4896 55.9688 29.8125 55.9688 28.0625C55.9688 26.3125 55.625 24.6406 54.9375 23.0469C54.2604 21.4427 53.3438 20.0625 52.1875 18.9062C51.0312 17.75 49.651 16.8333 48.0469 16.1562C46.4531 15.4688 44.7812 15.125 43.0312 15.125C41.2812 15.125 39.6042 15.4688 38 16.1562C36.4062 16.8333 35.0312 17.75 33.875 18.9062C32.7188 20.0625 31.7969 21.4427 31.1094 23.0469ZM30.0781 33.5312C29.3385 31.7917 28.9688 29.9688 28.9688 28.0625C28.9688 26.1562 29.3385 24.3385 30.0781 22.6094C30.8281 20.8698 31.8281 19.375 33.0781 18.125C34.3385 16.8646 35.8333 15.8646 37.5625 15.125C39.3021 14.375 41.125 14 43.0312 14C44.9375 14 46.7552 14.375 48.4844 15.125C50.224 15.8646 51.7188 16.8646 52.9688 18.125C54.2292 19.375 55.2292 20.8698 55.9688 22.6094C56.7188 24.3385 57.0938 26.1562 57.0938 28.0625C57.0938 29.9688 56.7188 31.7917 55.9688 33.5312C55.2292 35.2604 54.2292 36.7552 52.9688 38.0156C51.7188 39.2656 50.224 40.2604 48.4844 41C46.7552 41.75 44.9375 42.125 43.0312 42.125C41.125 42.125 39.3021 41.75 37.5625 41C35.8333 40.2604 34.3385 39.2656 33.0781 38.0156C31.8281 36.7552 30.8281 35.2604 30.0781 33.5312ZM56.9219 15.125H58.1406L67.7656 39.4844L77.3906 15.125H78.5938L68.375 41H67.1562L56.9219 15.125ZM68.5469 35.375L67.9062 36.8125L59.3438 15.125H60.5469L68.5469 35.375ZM69.75 32.2969L69.1562 33.8438L61.7656 15.125H62.9844L69.75 32.2969ZM70.9375 29.1719L70.3438 30.75L64.1875 15.125H65.3906L70.9375 29.1719ZM84.6406 15.125H85.8594L75.625 41H74.4219L84.6406 15.125ZM82.2344 15.125H83.4375L73.2031 41H72L82.2344 15.125ZM79.7969 15.125H81.0156L70.7812 41H69.5781L79.7969 15.125ZM97.8438 33.4062L98.2969 32.2812H102.141L102.594 33.4062H97.8438ZM96.9688 35.6562L97.4062 34.5312H103.016L103.5 35.6562H96.9688ZM96.0938 37.9062L96.5312 36.7812H103.906L104.375 37.9062H96.0938ZM86.9531 41H85.7344L95.9688 15.125H97.1875L107.406 41H106.203L96.5781 16.6406L86.9531 41ZM96.7188 19.3125L97.3594 20.75L89.3594 41H88.1562L96.7188 19.3125ZM97.9688 22.2812L98.5625 23.8281L91.7969 41H90.5781L97.9688 22.2812ZM99.1562 25.375L99.75 26.9531L94.2031 41H93L99.1562 25.375ZM114.672 41H113.453L103.234 15.125H104.438L114.672 41ZM102.016 15.125L112.25 41H111.047L100.812 15.125H102.016ZM99.5938 15.125L109.828 41H108.609L98.3906 15.125H99.5938Z" fill="white"/>
<path d="M2.53 8.11C2.11333 8.11 1.74833 8.015 1.435 7.825C1.125 7.63167 0.883333 7.36333 0.71 7.02C0.536667 6.67333 0.45 6.27 0.45 5.81C0.45 5.2 0.57 4.66667 0.81 4.21C1.05 3.75333 1.385 3.39833 1.815 3.145C2.24833 2.88833 2.75333 2.76 3.33 2.76C3.66667 2.76 3.99833 2.8 4.325 2.88C4.65167 2.95667 4.915 3.06 5.115 3.19V6.57C5.115 6.79 5.17167 6.96833 5.285 7.105C5.40167 7.23833 5.55333 7.305 5.74 7.305L5.57 8.02C5.28 8.02 5.02833 7.94167 4.815 7.785C4.60167 7.62833 4.46667 7.42333 4.41 7.17C4.24 7.45333 3.98333 7.68167 3.64 7.855C3.29667 8.025 2.92667 8.11 2.53 8.11ZM2.655 7.42C2.985 7.42 3.27167 7.34667 3.515 7.2C3.76167 7.05 3.95333 6.84833 4.09 6.595C4.22667 6.34167 4.295 6.055 4.295 5.735V3.64C4.19167 3.58667 4.05 3.545 3.87 3.515C3.69 3.48167 3.505 3.465 3.315 3.465C2.91167 3.465 2.55833 3.56167 2.255 3.755C1.955 3.945 1.72 4.21167 1.55 4.555C1.38333 4.89833 1.3 5.3 1.3 5.76C1.3 6.25667 1.42333 6.65833 1.67 6.965C1.92 7.26833 2.24833 7.42 2.655 7.42ZM9.19539 8.115C8.72872 8.115 8.28706 8.01667 7.87039 7.82C7.45706 7.62 7.12039 7.325 6.86039 6.935C6.60372 6.545 6.47539 6.06167 6.47539 5.485C6.47539 5.04833 6.55206 4.66167 6.70539 4.325C6.86206 3.985 7.07039 3.69833 7.33039 3.465C7.59372 3.23167 7.88872 3.055 8.21539 2.935C8.54539 2.81167 8.88206 2.75 9.22539 2.75C9.52872 2.75 9.82872 2.8 10.1254 2.9C10.4254 3 10.6971 3.16667 10.9404 3.4L10.6404 4.005C10.4537 3.825 10.2437 3.69167 10.0104 3.605C9.77706 3.515 9.54206 3.47 9.30539 3.47C8.97206 3.47 8.65372 3.54667 8.35039 3.7C8.04706 3.85 7.80039 4.07333 7.61039 4.37C7.42039 4.66667 7.32539 5.03 7.32539 5.46C7.32539 5.90333 7.41872 6.27 7.60539 6.56C7.79206 6.84667 8.03372 7.06 8.33039 7.2C8.63039 7.33667 8.94706 7.405 9.28039 7.405C9.55039 7.405 9.82039 7.355 10.0904 7.255C10.3604 7.15167 10.5987 7.00333 10.8054 6.81L11.0904 7.44C10.8137 7.66333 10.5104 7.83167 10.1804 7.945C9.85039 8.05833 9.52206 8.115 9.19539 8.115ZM13.6238 8.11C13.2071 8.11 12.8421 8.015 12.5288 7.825C12.2188 7.63167 11.9771 7.36333 11.8038 7.02C11.6304 6.67333 11.5438 6.27 11.5438 5.81C11.5438 5.2 11.6638 4.66667 11.9038 4.21C12.1438 3.75333 12.4788 3.39833 12.9088 3.145C13.3421 2.88833 13.8471 2.76 14.4238 2.76C14.7604 2.76 15.0921 2.8 15.4188 2.88C15.7454 2.95667 16.0088 3.06 16.2088 3.19V6.57C16.2088 6.79 16.2654 6.96833 16.3788 7.105C16.4954 7.23833 16.6471 7.305 16.8338 7.305L16.6638 8.02C16.3738 8.02 16.1221 7.94167 15.9088 7.785C15.6954 7.62833 15.5604 7.42333 15.5038 7.17C15.3338 7.45333 15.0771 7.68167 14.7338 7.855C14.3904 8.025 14.0204 8.11 13.6238 8.11ZM13.7488 7.42C14.0788 7.42 14.3654 7.34667 14.6088 7.2C14.8554 7.05 15.0471 6.84833 15.1838 6.595C15.3204 6.34167 15.3888 6.055 15.3888 5.735V3.64C15.2854 3.58667 15.1438 3.545 14.9638 3.515C14.7838 3.48167 14.5988 3.465 14.4088 3.465C14.0054 3.465 13.6521 3.56167 13.3488 3.755C13.0488 3.945 12.8138 4.21167 12.6438 4.555C12.4771 4.89833 12.3938 5.3 12.3938 5.76C12.3938 6.25667 12.5171 6.65833 12.7638 6.965C13.0138 7.26833 13.3421 7.42 13.7488 7.42ZM19.9241 8.11C19.4541 8.11 19.0425 8.00167 18.6891 7.785C18.3358 7.56833 18.0608 7.26333 17.8641 6.87C17.6675 6.47667 17.5691 6.01833 17.5691 5.495C17.5691 4.97833 17.6575 4.515 17.8341 4.105C18.0141 3.69167 18.2791 3.365 18.6291 3.125C18.9791 2.88167 19.4108 2.76 19.9241 2.76C20.2541 2.76 20.5558 2.81 20.8291 2.91C21.1025 3.01 21.3758 3.17833 21.6491 3.415V0.47L22.4741 0.37V6.05C22.4741 6.43 22.4941 6.74 22.5341 6.98C22.5775 7.21667 22.6325 7.41 22.6991 7.56C22.7691 7.71 22.8408 7.84 22.9141 7.95L22.1041 8.065C22.0108 7.95167 21.9241 7.80667 21.8441 7.63C21.7675 7.45 21.7241 7.27833 21.7141 7.115C21.5641 7.42833 21.3291 7.67333 21.0091 7.85C20.6891 8.02333 20.3275 8.11 19.9241 8.11ZM20.0141 7.42C20.4141 7.42 20.7341 7.32833 20.9741 7.145C21.2141 6.96167 21.3875 6.71333 21.4941 6.4C21.6008 6.08333 21.6541 5.72667 21.6541 5.33V4.28C21.4675 4.03 21.2258 3.83167 20.9291 3.685C20.6358 3.53833 20.3408 3.465 20.0441 3.465C19.6675 3.465 19.3591 3.55333 19.1191 3.73C18.8791 3.90667 18.7025 4.14667 18.5891 4.45C18.4758 4.75 18.4191 5.08833 18.4191 5.465C18.4191 5.85167 18.4858 6.19333 18.6191 6.49C18.7558 6.78333 18.9441 7.01167 19.1841 7.175C19.4241 7.33833 19.7008 7.42 20.0141 7.42ZM26.347 8.11C25.8403 8.11 25.387 8 24.987 7.78C24.5903 7.56 24.277 7.24833 24.047 6.845C23.817 6.44167 23.702 5.96667 23.702 5.42C23.702 4.95 23.8036 4.51333 24.007 4.11C24.2136 3.70667 24.5103 3.38167 24.897 3.135C25.287 2.885 25.7553 2.76 26.302 2.76C26.662 2.76 26.9736 2.82667 27.237 2.96C27.5036 3.09 27.7086 3.26667 27.852 3.49C27.9986 3.71333 28.072 3.965 28.072 4.245C28.072 4.65167 27.9236 4.97833 27.627 5.225C27.3303 5.47167 26.9253 5.665 26.412 5.805C25.902 5.94167 25.3236 6.055 24.677 6.145C24.7436 6.39833 24.862 6.62167 25.032 6.815C25.202 7.005 25.402 7.15333 25.632 7.26C25.862 7.36667 26.1003 7.42 26.347 7.42C26.6936 7.42 27.012 7.355 27.302 7.225C27.5953 7.09167 27.8253 6.93 27.992 6.74L28.407 7.27C28.157 7.52667 27.8503 7.73167 27.487 7.885C27.127 8.035 26.747 8.11 26.347 8.11ZM24.617 5.55C25.1303 5.47667 25.5853 5.38833 25.982 5.285C26.3786 5.18167 26.6903 5.04667 26.917 4.88C27.1436 4.71 27.257 4.49167 27.257 4.225C27.257 3.99833 27.1736 3.815 27.007 3.675C26.8436 3.535 26.6103 3.465 26.307 3.465C26.0303 3.465 25.7603 3.53333 25.497 3.67C25.237 3.80333 25.022 4.00667 24.852 4.28C24.6853 4.55 24.602 4.89167 24.602 5.305C24.602 5.38833 24.607 5.47 24.617 5.55ZM37.9985 8.095C37.6352 8.14833 37.3552 8.12833 37.1585 8.035C36.9652 7.94167 36.8318 7.775 36.7585 7.535C36.6852 7.29167 36.6485 6.97333 36.6485 6.58V5.19C36.6485 4.58333 36.5652 4.145 36.3985 3.875C36.2318 3.60167 35.9552 3.465 35.5685 3.465C35.3152 3.465 35.0585 3.53 34.7985 3.66C34.5385 3.79 34.3202 3.99333 34.1435 4.27C33.9702 4.54333 33.8835 4.9 33.8835 5.34V8H33.0585V5.19C33.0585 4.58333 32.9768 4.145 32.8135 3.875C32.6502 3.60167 32.3752 3.465 31.9885 3.465C31.7485 3.465 31.5035 3.525 31.2535 3.645C31.0068 3.76167 30.7952 3.94667 30.6185 4.2C30.4452 4.45 30.3452 4.775 30.3185 5.175V8H29.4985V4.505C29.4985 4.215 29.4485 3.96167 29.3485 3.745C29.2485 3.52833 29.1402 3.32333 29.0235 3.13L29.8485 2.87C29.9385 3.00667 30.0202 3.14667 30.0935 3.29C30.1702 3.43 30.2202 3.58167 30.2435 3.745C30.3935 3.44833 30.6485 3.21 31.0085 3.03C31.3718 2.85 31.7568 2.76 32.1635 2.76C32.5702 2.76 32.9052 2.85167 33.1685 3.035C33.4318 3.21833 33.6235 3.50833 33.7435 3.905L33.8035 3.79C33.8968 3.58333 34.0435 3.40333 34.2435 3.25C34.4435 3.09667 34.6735 2.97667 34.9335 2.89C35.1968 2.80333 35.4668 2.76 35.7435 2.76C36.3235 2.76 36.7568 2.95167 37.0435 3.335C37.3302 3.715 37.4735 4.32833 37.4735 5.175V6.4C37.4735 6.65333 37.4802 6.86167 37.4935 7.025C37.5102 7.18833 37.5602 7.30333 37.6435 7.37C37.7268 7.43333 37.8718 7.445 38.0785 7.405L37.9985 8.095ZM40.5977 8.025C40.3611 8.025 40.1411 7.98 39.9377 7.89C39.7344 7.8 39.5711 7.65167 39.4477 7.445C39.3244 7.23833 39.2627 6.96 39.2627 6.61V2.87H40.0877V6.585C40.0877 6.935 40.1494 7.16 40.2727 7.26C40.3961 7.36 40.5427 7.41 40.7127 7.41C40.7894 7.41 40.8894 7.4 41.0127 7.38C41.1361 7.35667 41.2411 7.32833 41.3277 7.295L41.4277 7.85C41.3044 7.9 41.1644 7.94167 41.0077 7.975C40.8511 8.00833 40.7144 8.025 40.5977 8.025ZM39.2477 1.81V0.915H40.1277V1.81H39.2477ZM43.9558 8.11C43.5391 8.11 43.1741 8.015 42.8608 7.825C42.5508 7.63167 42.3091 7.36333 42.1358 7.02C41.9624 6.67333 41.8758 6.27 41.8758 5.81C41.8758 5.2 41.9958 4.66667 42.2358 4.21C42.4758 3.75333 42.8108 3.39833 43.2408 3.145C43.6741 2.88833 44.1791 2.76 44.7558 2.76C45.0924 2.76 45.4241 2.8 45.7508 2.88C46.0774 2.95667 46.3408 3.06 46.5408 3.19V6.57C46.5408 6.79 46.5974 6.96833 46.7108 7.105C46.8274 7.23833 46.9791 7.305 47.1658 7.305L46.9958 8.02C46.7058 8.02 46.4541 7.94167 46.2408 7.785C46.0274 7.62833 45.8924 7.42333 45.8358 7.17C45.6658 7.45333 45.4091 7.68167 45.0658 7.855C44.7224 8.025 44.3524 8.11 43.9558 8.11ZM44.0808 7.42C44.4108 7.42 44.6974 7.34667 44.9408 7.2C45.1874 7.05 45.3791 6.84833 45.5158 6.595C45.6524 6.34167 45.7208 6.055 45.7208 5.735V3.64C45.6174 3.58667 45.4758 3.545 45.2958 3.515C45.1158 3.48167 44.9308 3.465 44.7408 3.465C44.3374 3.465 43.9841 3.56167 43.6808 3.755C43.3808 3.945 43.1458 4.21167 42.9758 4.555C42.8091 4.89833 42.7258 5.3 42.7258 5.76C42.7258 6.25667 42.8491 6.65833 43.0958 6.965C43.3458 7.26833 43.6741 7.42 44.0808 7.42Z" fill="white"/>
</svg>
